<?xml version="1.0" encoding="utf-8"?>
<!-- Generator: Adobe Illustrator 18.1.1, SVG Export Plug-In . SVG Version: 6.00 Build 0)  -->
<svg version="1.1" id="Capa_1" xmlns="http://www.w3.org/2000/svg" xmlns:xlink="http://www.w3.org/1999/xlink" x="0px" y="0px"
	 viewBox="0 0 66.4 58.8" enable-background="new 0 0 66.4 58.8" xml:space="preserve">
<g>
	<path fill="#FFFFFF" d="M35.5,1.9C19,1.9,5.7,14.2,5.7,29.4c0,4.1,1,8,2.7,11.5l-7,12.7c-0.4,0.7-0.3,1.6,0.2,2.2
		c0.4,0.5,1,0.8,1.6,0.8c0.2,0,0.4,0,0.5-0.1l15.4-4.2c4.7,2.9,10.3,4.5,16.3,4.5c16.4,0,29.8-12.3,29.8-27.5
		C65.2,14.2,51.9,1.9,35.5,1.9z M32.7,18.4c0-1.5,1.2-2.7,2.7-2.7s2.7,1.2,2.7,2.7V33c0,1.5-1.2,2.7-2.7,2.7s-2.7-1.2-2.7-2.7V18.4z
		 M35.4,43.1c-1.6,0-2.9-1.3-2.9-2.9c0-1.6,1.3-2.9,2.9-2.9c1.6,0,2.9,1.3,2.9,2.9C38.3,41.8,37,43.1,35.4,43.1z"/>
</g>
</svg>
