<?xml version="1.0" encoding="utf-8"?>
<!-- Generator: Adobe Illustrator 18.1.1, SVG Export Plug-In . SVG Version: 6.00 Build 0)  -->
<svg version="1.1" id="Capa_1" xmlns="http://www.w3.org/2000/svg" xmlns:xlink="http://www.w3.org/1999/xlink" x="0px" y="0px"
	 viewBox="0 0 17.6 17.6" enable-background="new 0 0 17.6 17.6" xml:space="preserve">
<path fill="#BBDEFB" d="M16,9.5v5c0,0.9-0.7,1.6-1.6,1.6H3.2c-0.9,0-1.6-0.7-1.6-1.6V3.2c0-0.9,0.7-1.6,1.6-1.6h5
	C7.9,1.9,7.7,2.3,7.7,2.7H3.2c-0.3,0-0.5,0.2-0.5,0.5v11.3c0,0.3,0.2,0.5,0.5,0.5h11.3c0.3,0,0.5-0.2,0.5-0.5V10
	C15.4,9.9,15.7,9.8,16,9.5L16,9.5z M9.9,3.1h3.4L7.8,8.7C7.5,9,7.5,9.5,7.8,9.8c0.3,0.3,0.8,0.3,1.1,0l5.6-5.6v3.4
	c0,0.4,0.4,0.8,0.8,0.8c0.2,0,0.4-0.1,0.6-0.2C16,8.1,16,7.9,16,7.7V2.3c0-0.4-0.4-0.8-0.8-0.8H9.9c-0.4,0-0.8,0.4-0.8,0.8
	C9.1,2.8,9.5,3.1,9.9,3.1L9.9,3.1z M9.9,3.1"/>
</svg>
