<?xml version="1.0" encoding="utf-8"?>
<!-- Generator: Adobe Illustrator 18.1.1, SVG Export Plug-In . SVG Version: 6.00 Build 0)  -->
<svg version="1.1" id="Capa_1" xmlns="http://www.w3.org/2000/svg" xmlns:xlink="http://www.w3.org/1999/xlink" x="0px" y="0px"
	 viewBox="0 0 17.6 17.6" enable-background="new 0 0 17.6 17.6" xml:space="preserve">
<path fill="#BBDEFB" d="M16,9.4v5c0,0.9-0.7,1.6-1.6,1.6H3.2c-0.9,0-1.6-0.7-1.6-1.6V3.2c0-0.9,0.7-1.6,1.6-1.6h5
	C7.9,1.9,7.8,2.3,7.7,2.7H3.2c-0.3,0-0.5,0.2-0.5,0.5v11.3c0,0.3,0.2,0.5,0.5,0.5h11.3c0.3,0,0.5-0.2,0.5-0.5V9.9
	C15.4,9.9,15.8,9.7,16,9.4L16,9.4z M13.6,8.5h-3.4l5.6-5.6c0.3-0.3,0.3-0.8,0-1.1c-0.3-0.3-0.8-0.3-1.1,0L9,7.4V4
	c0-0.4-0.4-0.8-0.8-0.8C8,3.2,7.8,3.3,7.7,3.4C7.6,3.5,7.5,3.7,7.5,4v5.4c0,0.4,0.4,0.8,0.8,0.8h5.4c0.4,0,0.8-0.4,0.8-0.8
	C14.4,8.9,14,8.5,13.6,8.5L13.6,8.5z M13.6,8.5"/>
</svg>
